<mxfile host="app.diagrams.net" modified="2024-07-08T22:14:41.283Z" agent="Mozilla/5.0 (Windows NT 10.0; Win64; x64) AppleWebKit/537.36 (KHTML, like Gecko) Chrome/126.0.0.0 Safari/537.36" etag="IcvPSpD0Tm82yN_AF_aW" version="24.6.4" type="google">
  <diagram name="PÃ¡gina-1" id="JJgbPzOvQgDYRdqmJUVu">
    <mxGraphModel grid="1" page="1" gridSize="10" guides="1" tooltips="1" connect="1" arrows="1" fold="1" pageScale="1" pageWidth="827" pageHeight="1169" math="0" shadow="0">
      <root>
        <mxCell id="0" />
        <mxCell id="1" parent="0" />
        <mxCell id="jFf_bvRV7TXIv33GV13o-11" style="edgeStyle=orthogonalEdgeStyle;rounded=0;orthogonalLoop=1;jettySize=auto;html=1;" edge="1" parent="1" source="jFf_bvRV7TXIv33GV13o-1" target="jFf_bvRV7TXIv33GV13o-8">
          <mxGeometry relative="1" as="geometry" />
        </mxCell>
        <mxCell id="jFf_bvRV7TXIv33GV13o-27" style="edgeStyle=orthogonalEdgeStyle;rounded=0;orthogonalLoop=1;jettySize=auto;html=1;" edge="1" parent="1" source="jFf_bvRV7TXIv33GV13o-1" target="jFf_bvRV7TXIv33GV13o-26">
          <mxGeometry relative="1" as="geometry" />
        </mxCell>
        <mxCell id="jFf_bvRV7TXIv33GV13o-1" value="Productos" style="rounded=0;whiteSpace=wrap;html=1;fillColor=none;" vertex="1" parent="1">
          <mxGeometry x="187" y="270" width="120" height="60" as="geometry" />
        </mxCell>
        <mxCell id="jFf_bvRV7TXIv33GV13o-12" style="edgeStyle=orthogonalEdgeStyle;rounded=0;orthogonalLoop=1;jettySize=auto;html=1;entryX=1;entryY=0.5;entryDx=0;entryDy=0;" edge="1" parent="1" source="jFf_bvRV7TXIv33GV13o-2" target="jFf_bvRV7TXIv33GV13o-8">
          <mxGeometry relative="1" as="geometry" />
        </mxCell>
        <mxCell id="jFf_bvRV7TXIv33GV13o-2" value="Clientes" style="rounded=0;whiteSpace=wrap;html=1;" vertex="1" parent="1">
          <mxGeometry x="487" y="270" width="120" height="60" as="geometry" />
        </mxCell>
        <mxCell id="jFf_bvRV7TXIv33GV13o-3" value="nombre" style="ellipse;whiteSpace=wrap;html=1;" vertex="1" parent="1">
          <mxGeometry x="667" y="290" width="100" height="50" as="geometry" />
        </mxCell>
        <mxCell id="jFf_bvRV7TXIv33GV13o-4" value="apellido" style="ellipse;whiteSpace=wrap;html=1;" vertex="1" parent="1">
          <mxGeometry x="657" y="220" width="100" height="50" as="geometry" />
        </mxCell>
        <mxCell id="jFf_bvRV7TXIv33GV13o-5" value="&lt;u&gt;CC&lt;/u&gt;" style="ellipse;whiteSpace=wrap;html=1;" vertex="1" parent="1">
          <mxGeometry x="637" y="150" width="100" height="50" as="geometry" />
        </mxCell>
        <mxCell id="jFf_bvRV7TXIv33GV13o-6" value="direccion" style="ellipse;whiteSpace=wrap;html=1;" vertex="1" parent="1">
          <mxGeometry x="667" y="360" width="100" height="50" as="geometry" />
        </mxCell>
        <mxCell id="jFf_bvRV7TXIv33GV13o-7" value="Fecha_nacimiento" style="ellipse;whiteSpace=wrap;html=1;" vertex="1" parent="1">
          <mxGeometry x="617" y="425" width="120" height="50" as="geometry" />
        </mxCell>
        <mxCell id="jFf_bvRV7TXIv33GV13o-8" value="Compra" style="rhombus;whiteSpace=wrap;html=1;" vertex="1" parent="1">
          <mxGeometry x="360" y="266" width="68" height="68" as="geometry" />
        </mxCell>
        <mxCell id="jFf_bvRV7TXIv33GV13o-19" value="&lt;u&gt;id_producto&lt;/u&gt;" style="ellipse;whiteSpace=wrap;html=1;" vertex="1" parent="1">
          <mxGeometry x="117" y="170" width="100" height="50" as="geometry" />
        </mxCell>
        <mxCell id="jFf_bvRV7TXIv33GV13o-20" value="precio" style="ellipse;whiteSpace=wrap;html=1;" vertex="1" parent="1">
          <mxGeometry x="60" y="230" width="100" height="50" as="geometry" />
        </mxCell>
        <mxCell id="jFf_bvRV7TXIv33GV13o-21" value="nombre" style="ellipse;whiteSpace=wrap;html=1;" vertex="1" parent="1">
          <mxGeometry x="40" y="290" width="100" height="50" as="geometry" />
        </mxCell>
        <mxCell id="jFf_bvRV7TXIv33GV13o-25" value="Proveedores" style="rounded=0;whiteSpace=wrap;html=1;" vertex="1" parent="1">
          <mxGeometry x="334" y="490" width="120" height="60" as="geometry" />
        </mxCell>
        <mxCell id="jFf_bvRV7TXIv33GV13o-28" style="edgeStyle=orthogonalEdgeStyle;rounded=0;orthogonalLoop=1;jettySize=auto;html=1;entryX=0;entryY=0.5;entryDx=0;entryDy=0;" edge="1" parent="1" source="jFf_bvRV7TXIv33GV13o-26" target="jFf_bvRV7TXIv33GV13o-25">
          <mxGeometry relative="1" as="geometry" />
        </mxCell>
        <mxCell id="jFf_bvRV7TXIv33GV13o-26" value="Suministrar" style="rhombus;whiteSpace=wrap;html=1;" vertex="1" parent="1">
          <mxGeometry x="208.5" y="390" width="77" height="80" as="geometry" />
        </mxCell>
        <mxCell id="jFf_bvRV7TXIv33GV13o-29" value="&lt;u&gt;NIF&lt;/u&gt;" style="ellipse;whiteSpace=wrap;html=1;" vertex="1" parent="1">
          <mxGeometry x="240" y="600" width="100" height="50" as="geometry" />
        </mxCell>
        <mxCell id="jFf_bvRV7TXIv33GV13o-31" value="nombre" style="ellipse;whiteSpace=wrap;html=1;" vertex="1" parent="1">
          <mxGeometry x="349.5" y="620" width="89" height="50" as="geometry" />
        </mxCell>
        <mxCell id="jFf_bvRV7TXIv33GV13o-33" value="direccion" style="ellipse;whiteSpace=wrap;html=1;" vertex="1" parent="1">
          <mxGeometry x="440" y="600" width="100" height="50" as="geometry" />
        </mxCell>
        <mxCell id="jFf_bvRV7TXIv33GV13o-38" value="" style="endArrow=classic;html=1;rounded=0;exitX=1;exitY=0.5;exitDx=0;exitDy=0;entryX=0;entryY=0.75;entryDx=0;entryDy=0;" edge="1" parent="1" source="jFf_bvRV7TXIv33GV13o-21" target="jFf_bvRV7TXIv33GV13o-1">
          <mxGeometry width="50" height="50" relative="1" as="geometry">
            <mxPoint x="110" y="480" as="sourcePoint" />
            <mxPoint x="160" y="430" as="targetPoint" />
          </mxGeometry>
        </mxCell>
        <mxCell id="jFf_bvRV7TXIv33GV13o-39" value="" style="endArrow=classic;html=1;rounded=0;exitX=1;exitY=0.5;exitDx=0;exitDy=0;entryX=0;entryY=0.5;entryDx=0;entryDy=0;" edge="1" parent="1" source="jFf_bvRV7TXIv33GV13o-20" target="jFf_bvRV7TXIv33GV13o-1">
          <mxGeometry width="50" height="50" relative="1" as="geometry">
            <mxPoint x="150" y="325" as="sourcePoint" />
            <mxPoint x="197" y="325" as="targetPoint" />
          </mxGeometry>
        </mxCell>
        <mxCell id="jFf_bvRV7TXIv33GV13o-40" value="" style="endArrow=classic;html=1;rounded=0;exitX=0.5;exitY=1;exitDx=0;exitDy=0;entryX=0.25;entryY=0;entryDx=0;entryDy=0;" edge="1" parent="1" source="jFf_bvRV7TXIv33GV13o-19" target="jFf_bvRV7TXIv33GV13o-1">
          <mxGeometry width="50" height="50" relative="1" as="geometry">
            <mxPoint x="170" y="265" as="sourcePoint" />
            <mxPoint x="197" y="310" as="targetPoint" />
          </mxGeometry>
        </mxCell>
        <mxCell id="jFf_bvRV7TXIv33GV13o-41" value="" style="endArrow=classic;html=1;rounded=0;exitX=0;exitY=0.5;exitDx=0;exitDy=0;entryX=0.75;entryY=0;entryDx=0;entryDy=0;" edge="1" parent="1" source="jFf_bvRV7TXIv33GV13o-5" target="jFf_bvRV7TXIv33GV13o-2">
          <mxGeometry width="50" height="50" relative="1" as="geometry">
            <mxPoint x="177" y="230" as="sourcePoint" />
            <mxPoint x="227" y="280" as="targetPoint" />
          </mxGeometry>
        </mxCell>
        <mxCell id="jFf_bvRV7TXIv33GV13o-42" value="" style="endArrow=classic;html=1;rounded=0;exitX=0;exitY=0.5;exitDx=0;exitDy=0;entryX=1;entryY=0;entryDx=0;entryDy=0;" edge="1" parent="1" source="jFf_bvRV7TXIv33GV13o-4" target="jFf_bvRV7TXIv33GV13o-2">
          <mxGeometry width="50" height="50" relative="1" as="geometry">
            <mxPoint x="647" y="185" as="sourcePoint" />
            <mxPoint x="587" y="280" as="targetPoint" />
          </mxGeometry>
        </mxCell>
        <mxCell id="jFf_bvRV7TXIv33GV13o-43" value="" style="endArrow=classic;html=1;rounded=0;exitX=0;exitY=0.5;exitDx=0;exitDy=0;entryX=1;entryY=0.25;entryDx=0;entryDy=0;" edge="1" parent="1" source="jFf_bvRV7TXIv33GV13o-3" target="jFf_bvRV7TXIv33GV13o-2">
          <mxGeometry width="50" height="50" relative="1" as="geometry">
            <mxPoint x="667" y="255" as="sourcePoint" />
            <mxPoint x="617" y="280" as="targetPoint" />
          </mxGeometry>
        </mxCell>
        <mxCell id="jFf_bvRV7TXIv33GV13o-44" value="" style="endArrow=classic;html=1;rounded=0;exitX=0;exitY=0.5;exitDx=0;exitDy=0;entryX=1;entryY=0.75;entryDx=0;entryDy=0;" edge="1" parent="1" source="jFf_bvRV7TXIv33GV13o-6" target="jFf_bvRV7TXIv33GV13o-2">
          <mxGeometry width="50" height="50" relative="1" as="geometry">
            <mxPoint x="677" y="325" as="sourcePoint" />
            <mxPoint x="617" y="295" as="targetPoint" />
          </mxGeometry>
        </mxCell>
        <mxCell id="jFf_bvRV7TXIv33GV13o-45" value="" style="endArrow=classic;html=1;rounded=0;exitX=0;exitY=0;exitDx=0;exitDy=0;entryX=0.75;entryY=1;entryDx=0;entryDy=0;" edge="1" parent="1" source="jFf_bvRV7TXIv33GV13o-7" target="jFf_bvRV7TXIv33GV13o-2">
          <mxGeometry width="50" height="50" relative="1" as="geometry">
            <mxPoint x="677" y="395" as="sourcePoint" />
            <mxPoint x="617" y="325" as="targetPoint" />
          </mxGeometry>
        </mxCell>
        <mxCell id="jFf_bvRV7TXIv33GV13o-46" value="" style="endArrow=classic;html=1;rounded=0;exitX=0.5;exitY=0;exitDx=0;exitDy=0;entryX=1;entryY=1;entryDx=0;entryDy=0;" edge="1" parent="1" source="jFf_bvRV7TXIv33GV13o-33" target="jFf_bvRV7TXIv33GV13o-25">
          <mxGeometry width="50" height="50" relative="1" as="geometry">
            <mxPoint x="687" y="405" as="sourcePoint" />
            <mxPoint x="627" y="335" as="targetPoint" />
          </mxGeometry>
        </mxCell>
        <mxCell id="jFf_bvRV7TXIv33GV13o-47" value="" style="endArrow=classic;html=1;rounded=0;exitX=0.5;exitY=0;exitDx=0;exitDy=0;entryX=0.5;entryY=1;entryDx=0;entryDy=0;" edge="1" parent="1" source="jFf_bvRV7TXIv33GV13o-31" target="jFf_bvRV7TXIv33GV13o-25">
          <mxGeometry width="50" height="50" relative="1" as="geometry">
            <mxPoint x="500" y="610" as="sourcePoint" />
            <mxPoint x="434" y="560" as="targetPoint" />
          </mxGeometry>
        </mxCell>
        <mxCell id="jFf_bvRV7TXIv33GV13o-48" value="" style="endArrow=classic;html=1;rounded=0;exitX=0.5;exitY=0;exitDx=0;exitDy=0;entryX=0;entryY=1;entryDx=0;entryDy=0;" edge="1" parent="1" source="jFf_bvRV7TXIv33GV13o-29" target="jFf_bvRV7TXIv33GV13o-25">
          <mxGeometry width="50" height="50" relative="1" as="geometry">
            <mxPoint x="404" y="630" as="sourcePoint" />
            <mxPoint x="404" y="560" as="targetPoint" />
          </mxGeometry>
        </mxCell>
      </root>
    </mxGraphModel>
  </diagram>
</mxfile>
